<mxfile host="Electron" modified="2023-10-13T11:01:29.449Z" agent="Mozilla/5.0 (Windows NT 10.0; Win64; x64) AppleWebKit/537.36 (KHTML, like Gecko) draw.io/21.1.2 Chrome/106.0.5249.199 Electron/21.4.3 Safari/537.36" etag="iu-GBB8PzF710cJzBhm1" version="21.1.2" type="device">
  <diagram name="Страница 1" id="_Zr_UQpDa4siRULKWjRN">
    <mxGraphModel dx="988" dy="669" grid="1" gridSize="10" guides="1" tooltips="1" connect="1" arrows="1" fold="1" page="1" pageScale="1" pageWidth="827" pageHeight="1169" math="0" shadow="0">
      <root>
        <mxCell id="0" />
        <mxCell id="1" parent="0" />
        <mxCell id="RspDvPVZAv3yV0w4Ojai-17" value="" style="fillColor=#7CCC6C;strokeColor=none;whiteSpace=wrap;html=1;rounded=1;" vertex="1" parent="1">
          <mxGeometry x="140" y="110" width="670" height="180" as="geometry" />
        </mxCell>
        <mxCell id="RspDvPVZAv3yV0w4Ojai-12" style="edgeStyle=entityRelationEdgeStyle;rounded=0;orthogonalLoop=1;jettySize=auto;html=1;entryX=0;entryY=0.5;entryDx=0;entryDy=0;" edge="1" parent="1" source="RspDvPVZAv3yV0w4Ojai-1" target="RspDvPVZAv3yV0w4Ojai-3">
          <mxGeometry relative="1" as="geometry" />
        </mxCell>
        <mxCell id="RspDvPVZAv3yV0w4Ojai-13" style="edgeStyle=entityRelationEdgeStyle;rounded=0;orthogonalLoop=1;jettySize=auto;html=1;" edge="1" parent="1" source="RspDvPVZAv3yV0w4Ojai-1" target="RspDvPVZAv3yV0w4Ojai-2">
          <mxGeometry relative="1" as="geometry" />
        </mxCell>
        <mxCell id="RspDvPVZAv3yV0w4Ojai-1" value="User" style="shape=umlActor;verticalLabelPosition=bottom;verticalAlign=top;html=1;outlineConnect=0;" vertex="1" parent="1">
          <mxGeometry x="90" y="280" width="30" height="60" as="geometry" />
        </mxCell>
        <mxCell id="RspDvPVZAv3yV0w4Ojai-14" style="edgeStyle=entityRelationEdgeStyle;rounded=0;orthogonalLoop=1;jettySize=auto;html=1;" edge="1" parent="1" source="RspDvPVZAv3yV0w4Ojai-2" target="RspDvPVZAv3yV0w4Ojai-6">
          <mxGeometry relative="1" as="geometry" />
        </mxCell>
        <mxCell id="RspDvPVZAv3yV0w4Ojai-15" style="edgeStyle=entityRelationEdgeStyle;rounded=0;orthogonalLoop=1;jettySize=auto;html=1;" edge="1" parent="1" source="RspDvPVZAv3yV0w4Ojai-2" target="RspDvPVZAv3yV0w4Ojai-5">
          <mxGeometry relative="1" as="geometry" />
        </mxCell>
        <mxCell id="RspDvPVZAv3yV0w4Ojai-16" style="rounded=0;orthogonalLoop=1;jettySize=auto;html=1;entryX=0;entryY=0;entryDx=0;entryDy=0;" edge="1" parent="1" source="RspDvPVZAv3yV0w4Ojai-2" target="RspDvPVZAv3yV0w4Ojai-4">
          <mxGeometry relative="1" as="geometry">
            <mxPoint x="430" y="460" as="targetPoint" />
          </mxGeometry>
        </mxCell>
        <mxCell id="RspDvPVZAv3yV0w4Ojai-2" value="Регистрация" style="ellipse;whiteSpace=wrap;html=1;" vertex="1" parent="1">
          <mxGeometry x="250" y="320" width="120" height="80" as="geometry" />
        </mxCell>
        <mxCell id="RspDvPVZAv3yV0w4Ojai-10" style="edgeStyle=entityRelationEdgeStyle;rounded=0;orthogonalLoop=1;jettySize=auto;html=1;entryX=0;entryY=0.5;entryDx=0;entryDy=0;" edge="1" parent="1" source="RspDvPVZAv3yV0w4Ojai-3" target="RspDvPVZAv3yV0w4Ojai-7">
          <mxGeometry relative="1" as="geometry" />
        </mxCell>
        <mxCell id="RspDvPVZAv3yV0w4Ojai-3" value="Авторизация" style="ellipse;whiteSpace=wrap;html=1;" vertex="1" parent="1">
          <mxGeometry x="250" y="200" width="120" height="80" as="geometry" />
        </mxCell>
        <mxCell id="RspDvPVZAv3yV0w4Ojai-4" value="Создаёт новый аккаунт" style="ellipse;whiteSpace=wrap;html=1;" vertex="1" parent="1">
          <mxGeometry x="370" y="460" width="120" height="80" as="geometry" />
        </mxCell>
        <mxCell id="RspDvPVZAv3yV0w4Ojai-5" value="Сохраняется базовая информация" style="ellipse;whiteSpace=wrap;html=1;" vertex="1" parent="1">
          <mxGeometry x="490" y="400" width="120" height="80" as="geometry" />
        </mxCell>
        <mxCell id="RspDvPVZAv3yV0w4Ojai-6" value="Требуется логин и пароль" style="ellipse;whiteSpace=wrap;html=1;" vertex="1" parent="1">
          <mxGeometry x="490" y="300" width="120" height="80" as="geometry" />
        </mxCell>
        <mxCell id="RspDvPVZAv3yV0w4Ojai-11" style="edgeStyle=entityRelationEdgeStyle;rounded=0;orthogonalLoop=1;jettySize=auto;html=1;" edge="1" parent="1" source="RspDvPVZAv3yV0w4Ojai-7" target="RspDvPVZAv3yV0w4Ojai-8">
          <mxGeometry relative="1" as="geometry" />
        </mxCell>
        <mxCell id="RspDvPVZAv3yV0w4Ojai-7" value="Подтверждение свзяки &lt;br&gt;логин/пароль" style="ellipse;whiteSpace=wrap;html=1;" vertex="1" parent="1">
          <mxGeometry x="450" y="150" width="120" height="80" as="geometry" />
        </mxCell>
        <mxCell id="RspDvPVZAv3yV0w4Ojai-8" value="Доступ в систему" style="ellipse;whiteSpace=wrap;html=1;" vertex="1" parent="1">
          <mxGeometry x="650" y="200" width="120" height="80" as="geometry" />
        </mxCell>
      </root>
    </mxGraphModel>
  </diagram>
</mxfile>
